<svg width="528" height="436" viewBox="0 0 528 436" fill="none" xmlns="http://www.w3.org/2000/svg">
<path d="M264 403.976C389.921 403.976 492 313.543 492 201.988C492 90.4331 389.921 0 264 0C138.079 0 35.9999 90.4331 35.9999 201.988C35.9999 313.543 138.079 403.976 264 403.976Z" fill="#F8D7DA"/>
<path d="M427.2 116.94H100.8C91.5215 116.94 83.9999 123.604 83.9999 131.824V261.521C83.9999 269.741 91.5215 276.405 100.8 276.405H427.2C436.478 276.405 444 269.741 444 261.521V131.824C444 123.604 436.478 116.94 427.2 116.94Z" fill="#1A1A1A"/>
<path d="M422.4 129.698H105.6C101.623 129.698 98.3998 132.553 98.3998 136.076V208.367C98.3998 211.889 101.623 214.745 105.6 214.745H422.4C426.376 214.745 429.6 211.889 429.6 208.367V136.076C429.6 132.553 426.376 129.698 422.4 129.698Z" fill="#2A2A2A"/>
<path opacity="0.85" d="M162 140.328H116.4C113.086 140.328 110.4 142.708 110.4 145.644V169.032C110.4 171.968 113.086 174.347 116.4 174.347H162C165.314 174.347 168 171.968 168 169.032V145.644C168 142.708 165.314 140.328 162 140.328Z" fill="#6ECFFF"/>
<path opacity="0.85" d="M234 140.328H188.4C185.086 140.328 182.4 142.708 182.4 145.644V169.032C182.4 171.968 185.086 174.347 188.4 174.347H234C237.314 174.347 240 171.968 240 169.032V145.644C240 142.708 237.314 140.328 234 140.328Z" fill="#6ECFFF"/>
<path opacity="0.85" d="M306 140.328H260.4C257.086 140.328 254.4 142.708 254.4 145.644V169.032C254.4 171.968 257.086 174.347 260.4 174.347H306C309.314 174.347 312 171.968 312 169.032V145.644C312 142.708 309.314 140.328 306 140.328Z" fill="#6ECFFF"/>
<path opacity="0.85" d="M378 140.328H332.4C329.086 140.328 326.4 142.708 326.4 145.644V169.032C326.4 171.968 329.086 174.347 332.4 174.347H378C381.314 174.347 384 171.968 384 169.032V145.644C384 142.708 381.314 140.328 378 140.328Z" fill="#6ECFFF"/>
<path d="M235.2 191.357H187.2C184.549 191.357 182.4 193.261 182.4 195.61V257.269C182.4 259.618 184.549 261.521 187.2 261.521H235.2C237.851 261.521 240 259.618 240 257.269V195.61C240 193.261 237.851 191.357 235.2 191.357Z" fill="#333333"/>
<path d="M230.4 230.692C233.051 230.692 235.2 228.788 235.2 226.439C235.2 224.091 233.051 222.187 230.4 222.187C227.749 222.187 225.6 224.091 225.6 226.439C225.6 228.788 227.749 230.692 230.4 230.692Z" fill="#888888"/>
<path d="M441.6 259.395H86.3999C85.0744 259.395 83.9999 260.347 83.9999 261.521V270.026C83.9999 271.2 85.0744 272.152 86.3999 272.152H441.6C442.925 272.152 444 271.2 444 270.026V261.521C444 260.347 442.925 259.395 441.6 259.395Z" fill="#E53935"/>
<path d="M153.6 315.739C169.506 315.739 182.4 304.316 182.4 290.225C182.4 276.134 169.506 264.711 153.6 264.711C137.694 264.711 124.8 276.134 124.8 290.225C124.8 304.316 137.694 315.739 153.6 315.739Z" fill="#222222" stroke="#555555" stroke-width="3"/>
<path d="M153.6 302.982C161.553 302.982 168 297.27 168 290.225C168 283.179 161.553 277.468 153.6 277.468C145.647 277.468 139.2 283.179 139.2 290.225C139.2 297.27 145.647 302.982 153.6 302.982Z" fill="#444444"/>
<path d="M153.6 294.477C156.251 294.477 158.4 292.574 158.4 290.225C158.4 287.877 156.251 285.973 153.6 285.973C150.949 285.973 148.8 287.877 148.8 290.225C148.8 292.574 150.949 294.477 153.6 294.477Z" fill="#888888"/>
<path d="M374.4 315.739C390.306 315.739 403.2 304.316 403.2 290.225C403.2 276.134 390.306 264.711 374.4 264.711C358.494 264.711 345.6 276.134 345.6 290.225C345.6 304.316 358.494 315.739 374.4 315.739Z" fill="#222222" stroke="#555555" stroke-width="3"/>
<path d="M374.4 302.982C382.353 302.982 388.8 297.27 388.8 290.225C388.8 283.179 382.353 277.468 374.4 277.468C366.447 277.468 360 283.179 360 290.225C360 297.27 366.447 302.982 374.4 302.982Z" fill="#444444"/>
<path d="M374.4 294.477C377.051 294.477 379.2 292.574 379.2 290.225C379.2 287.877 377.051 285.973 374.4 285.973C371.749 285.973 369.6 287.877 369.6 290.225C369.6 292.574 371.749 294.477 374.4 294.477Z" fill="#888888"/>
<path d="M100.8 204.114H88.7999C87.4744 204.114 86.3999 205.066 86.3999 206.24V212.619C86.3999 213.793 87.4744 214.745 88.7999 214.745H100.8C102.125 214.745 103.2 213.793 103.2 212.619V206.24C103.2 205.066 102.125 204.114 100.8 204.114Z" fill="#FFE082"/>
<path d="M439.2 204.114H427.2C425.874 204.114 424.8 205.066 424.8 206.24V212.619C424.8 213.793 425.874 214.745 427.2 214.745H439.2C440.525 214.745 441.6 213.793 441.6 212.619V206.24C441.6 205.066 440.525 204.114 439.2 204.114Z" fill="#FFE082"/>
<path opacity="0.65" d="M0 329.559C176 318.22 352 318.22 528 329.559V361.452H0V329.559Z" fill="#E53935"/>
<path d="M0 344.443C176 333.103 352 333.103 528 344.443V361.452H0V344.443Z" fill="#E53935"/>
<path d="M420 372.083H108C101.372 372.083 95.9998 376.843 95.9998 382.714V425.238C95.9998 431.109 101.372 435.869 108 435.869H420C426.627 435.869 432 431.109 432 425.238V382.714C432 376.843 426.627 372.083 420 372.083Z" fill="#222222"/>
<path d="M120.758 396.84V388.113H124.202C124.861 388.113 125.423 388.231 125.889 388.467C126.358 388.7 126.714 389.031 126.959 389.46C127.206 389.886 127.329 390.387 127.329 390.964C127.329 391.544 127.204 392.042 126.954 392.46C126.704 392.875 126.342 393.193 125.868 393.414C125.396 393.636 124.825 393.747 124.155 393.747H121.849V392.264H123.856C124.209 392.264 124.501 392.215 124.734 392.119C124.967 392.022 125.141 391.877 125.254 391.684C125.371 391.491 125.429 391.251 125.429 390.964C125.429 390.674 125.371 390.43 125.254 390.231C125.141 390.032 124.966 389.882 124.73 389.779C124.497 389.674 124.203 389.622 123.848 389.622H122.604V396.84H120.758ZM125.471 392.869L127.641 396.84H125.604L123.481 392.869H125.471ZM131.451 396.968C130.789 396.968 130.217 396.828 129.734 396.546C129.254 396.262 128.883 395.867 128.622 395.362C128.36 394.853 128.23 394.264 128.23 393.593C128.23 392.917 128.36 392.326 128.622 391.821C128.883 391.312 129.254 390.917 129.734 390.636C130.217 390.352 130.789 390.21 131.451 390.21C132.113 390.21 132.684 390.352 133.164 390.636C133.647 390.917 134.019 391.312 134.281 391.821C134.542 392.326 134.673 392.917 134.673 393.593C134.673 394.264 134.542 394.853 134.281 395.362C134.019 395.867 133.647 396.262 133.164 396.546C132.684 396.828 132.113 396.968 131.451 396.968ZM131.46 395.562C131.761 395.562 132.012 395.477 132.214 395.306C132.416 395.133 132.568 394.897 132.67 394.599C132.775 394.301 132.828 393.961 132.828 393.581C132.828 393.2 132.775 392.86 132.67 392.562C132.568 392.264 132.416 392.028 132.214 391.855C132.012 391.681 131.761 391.595 131.46 391.595C131.156 391.595 130.9 391.681 130.693 391.855C130.488 392.028 130.333 392.264 130.228 392.562C130.126 392.86 130.075 393.2 130.075 393.581C130.075 393.961 130.126 394.301 130.228 394.599C130.333 394.897 130.488 395.133 130.693 395.306C130.9 395.477 131.156 395.562 131.46 395.562ZM140.051 394.054V390.295H141.866V396.84H140.123V395.652H140.055C139.907 396.035 139.661 396.343 139.318 396.576C138.977 396.809 138.561 396.926 138.069 396.926C137.632 396.926 137.247 396.826 136.914 396.627C136.582 396.429 136.322 396.146 136.134 395.779C135.95 395.413 135.856 394.974 135.853 394.463V390.295H137.669V394.139C137.671 394.525 137.775 394.831 137.98 395.055C138.184 395.279 138.458 395.392 138.802 395.392C139.021 395.392 139.225 395.342 139.416 395.242C139.606 395.14 139.759 394.99 139.876 394.791C139.995 394.592 140.054 394.346 140.051 394.054ZM146.8 390.295V391.659H142.858V390.295H146.8ZM143.753 388.727H145.568V394.829C145.568 394.997 145.594 395.127 145.645 395.221C145.696 395.312 145.767 395.376 145.858 395.413C145.952 395.45 146.06 395.468 146.182 395.468C146.267 395.468 146.352 395.461 146.437 395.447C146.523 395.43 146.588 395.417 146.633 395.409L146.919 396.759C146.828 396.788 146.7 396.821 146.535 396.857C146.371 396.897 146.17 396.921 145.935 396.93C145.497 396.947 145.114 396.889 144.784 396.755C144.457 396.622 144.203 396.414 144.021 396.133C143.839 395.852 143.75 395.497 143.753 395.068V388.727ZM150.895 396.968C150.221 396.968 149.642 396.832 149.156 396.559C148.673 396.284 148.301 395.894 148.04 395.392C147.778 394.886 147.648 394.288 147.648 393.598C147.648 392.924 147.778 392.333 148.04 391.825C148.301 391.316 148.669 390.92 149.143 390.636C149.621 390.352 150.18 390.21 150.822 390.21C151.254 390.21 151.656 390.279 152.028 390.419C152.403 390.555 152.73 390.761 153.008 391.036C153.29 391.312 153.508 391.659 153.665 392.076C153.821 392.491 153.899 392.977 153.899 393.534V394.032H148.372V392.907H152.19C152.19 392.646 152.133 392.414 152.02 392.213C151.906 392.011 151.748 391.853 151.547 391.74C151.348 391.623 151.116 391.565 150.852 391.565C150.577 391.565 150.332 391.629 150.119 391.757C149.909 391.882 149.744 392.051 149.625 392.264C149.506 392.474 149.444 392.708 149.442 392.967V394.036C149.442 394.36 149.501 394.64 149.621 394.876C149.743 395.112 149.915 395.294 150.136 395.421C150.358 395.549 150.621 395.613 150.925 395.613C151.126 395.613 151.311 395.585 151.479 395.528C151.646 395.471 151.79 395.386 151.909 395.272C152.028 395.159 152.119 395.019 152.182 394.855L153.861 394.965C153.775 395.369 153.601 395.721 153.337 396.022C153.075 396.321 152.737 396.554 152.322 396.721C151.91 396.886 151.435 396.968 150.895 396.968ZM157.712 395.306V393.853L161.355 388.113H162.608V390.125H161.867L159.57 393.759V393.828H164.747V395.306H157.712ZM161.901 396.84V394.863L161.935 394.22V388.113H163.665V396.84H161.901ZM165.977 396.84V395.511L169.083 392.634C169.348 392.379 169.569 392.149 169.748 391.944C169.93 391.74 170.068 391.539 170.161 391.343C170.255 391.144 170.302 390.93 170.302 390.7C170.302 390.444 170.244 390.224 170.127 390.039C170.011 389.852 169.852 389.708 169.65 389.609C169.448 389.507 169.22 389.456 168.964 389.456C168.697 389.456 168.464 389.509 168.265 389.617C168.066 389.725 167.913 389.88 167.805 390.082C167.697 390.284 167.643 390.524 167.643 390.802H165.892C165.892 390.231 166.021 389.735 166.279 389.315C166.538 388.894 166.9 388.569 167.366 388.339C167.832 388.109 168.369 387.994 168.977 387.994C169.602 387.994 170.146 388.105 170.609 388.326C171.075 388.545 171.437 388.849 171.696 389.238C171.954 389.627 172.083 390.073 172.083 390.576C172.083 390.906 172.018 391.231 171.887 391.552C171.759 391.873 171.531 392.23 171.201 392.622C170.872 393.011 170.407 393.478 169.808 394.024L168.534 395.272V395.332H172.198V396.84H165.977ZM187.605 391.757V393.197H175.605V391.757H187.605ZM198.841 391.169H196.975C196.941 390.927 196.871 390.713 196.766 390.525C196.661 390.335 196.526 390.173 196.361 390.039C196.197 389.906 196.006 389.804 195.79 389.732C195.577 389.661 195.346 389.626 195.096 389.626C194.644 389.626 194.251 389.738 193.915 389.963C193.58 390.184 193.32 390.508 193.136 390.934C192.951 391.357 192.859 391.872 192.859 392.477C192.859 393.099 192.951 393.622 193.136 394.045C193.323 394.468 193.584 394.788 193.92 395.004C194.255 395.22 194.643 395.328 195.083 395.328C195.33 395.328 195.559 395.295 195.769 395.23C195.982 395.164 196.171 395.069 196.336 394.944C196.501 394.816 196.637 394.661 196.745 394.48C196.856 394.298 196.932 394.09 196.975 393.857L198.841 393.866C198.793 394.267 198.672 394.653 198.479 395.025C198.289 395.394 198.032 395.725 197.708 396.018C197.387 396.308 197.003 396.538 196.557 396.708C196.114 396.876 195.613 396.96 195.053 396.96C194.275 396.96 193.579 396.784 192.965 396.431C192.354 396.079 191.871 395.569 191.516 394.902C191.164 394.234 190.988 393.426 190.988 392.477C190.988 391.525 191.167 390.715 191.525 390.048C191.883 389.38 192.368 388.872 192.982 388.522C193.596 388.17 194.286 387.994 195.053 387.994C195.559 387.994 196.028 388.065 196.459 388.207C196.894 388.349 197.279 388.556 197.614 388.829C197.949 389.099 198.222 389.43 198.432 389.822C198.645 390.214 198.782 390.663 198.841 391.169ZM200.131 396.84V390.295H201.946V396.84H200.131ZM201.042 389.451C200.773 389.451 200.541 389.362 200.348 389.183C200.158 389.001 200.062 388.784 200.062 388.531C200.062 388.281 200.158 388.066 200.348 387.887C200.541 387.706 200.773 387.615 201.042 387.615C201.312 387.615 201.542 387.706 201.733 387.887C201.926 388.066 202.023 388.281 202.023 388.531C202.023 388.784 201.926 389.001 201.733 389.183C201.542 389.362 201.312 389.451 201.042 389.451ZM206.882 390.295V391.659H202.94V390.295H206.882ZM203.835 388.727H205.65V394.829C205.65 394.997 205.676 395.127 205.727 395.221C205.778 395.312 205.849 395.376 205.94 395.413C206.034 395.45 206.142 395.468 206.264 395.468C206.349 395.468 206.434 395.461 206.519 395.447C206.605 395.43 206.67 395.417 206.715 395.409L207.001 396.759C206.91 396.788 206.782 396.821 206.617 396.857C206.453 396.897 206.252 396.921 206.017 396.93C205.579 396.947 205.196 396.889 204.866 396.755C204.539 396.622 204.285 396.414 204.103 396.133C203.921 395.852 203.832 395.497 203.835 395.068V388.727ZM209.185 399.295C208.955 399.295 208.739 399.277 208.537 399.24C208.338 399.206 208.174 399.161 208.043 399.107L208.452 397.752C208.665 397.818 208.857 397.853 209.027 397.859C209.201 397.865 209.35 397.825 209.475 397.74C209.603 397.654 209.706 397.509 209.786 397.305L209.892 397.028L207.544 390.295H209.453L210.808 395.102H210.877L212.245 390.295H214.166L211.622 397.548C211.5 397.9 211.334 398.207 211.124 398.468C210.916 398.732 210.654 398.936 210.335 399.078C210.017 399.223 209.634 399.295 209.185 399.295ZM225.607 391.169H223.741C223.707 390.927 223.637 390.713 223.532 390.525C223.427 390.335 223.292 390.173 223.127 390.039C222.962 389.906 222.772 389.804 222.556 389.732C222.343 389.661 222.111 389.626 221.861 389.626C221.41 389.626 221.016 389.738 220.681 389.963C220.346 390.184 220.086 390.508 219.901 390.934C219.716 391.357 219.624 391.872 219.624 392.477C219.624 393.099 219.716 393.622 219.901 394.045C220.089 394.468 220.35 394.788 220.685 395.004C221.02 395.22 221.408 395.328 221.849 395.328C222.096 395.328 222.324 395.295 222.535 395.23C222.748 395.164 222.937 395.069 223.101 394.944C223.266 394.816 223.403 394.661 223.511 394.48C223.621 394.298 223.698 394.09 223.741 393.857L225.607 393.866C225.559 394.267 225.438 394.653 225.245 395.025C225.055 395.394 224.797 395.725 224.474 396.018C224.153 396.308 223.769 396.538 223.323 396.708C222.88 396.876 222.378 396.96 221.819 396.96C221.04 396.96 220.344 396.784 219.731 396.431C219.12 396.079 218.637 395.569 218.282 394.902C217.93 394.234 217.753 393.426 217.753 392.477C217.753 391.525 217.932 390.715 218.29 390.048C218.648 389.38 219.134 388.872 219.748 388.522C220.361 388.17 221.052 387.994 221.819 387.994C222.324 387.994 222.793 388.065 223.225 388.207C223.66 388.349 224.045 388.556 224.38 388.829C224.715 389.099 224.988 389.43 225.198 389.822C225.411 390.214 225.547 390.663 225.607 391.169ZM229.879 396.968C229.206 396.968 228.626 396.832 228.141 396.559C227.658 396.284 227.285 395.894 227.024 395.392C226.763 394.886 226.632 394.288 226.632 393.598C226.632 392.924 226.763 392.333 227.024 391.825C227.285 391.316 227.653 390.92 228.128 390.636C228.605 390.352 229.165 390.21 229.807 390.21C230.239 390.21 230.641 390.279 231.013 390.419C231.388 390.555 231.714 390.761 231.993 391.036C232.274 391.312 232.493 391.659 232.649 392.076C232.805 392.491 232.883 392.977 232.883 393.534V394.032H227.356V392.907H231.175C231.175 392.646 231.118 392.414 231.004 392.213C230.891 392.011 230.733 391.853 230.531 391.74C230.332 391.623 230.101 391.565 229.837 391.565C229.561 391.565 229.317 391.629 229.104 391.757C228.893 391.882 228.729 392.051 228.609 392.264C228.49 392.474 228.429 392.708 228.426 392.967V394.036C228.426 394.36 228.486 394.64 228.605 394.876C228.727 395.112 228.899 395.294 229.121 395.421C229.342 395.549 229.605 395.613 229.909 395.613C230.111 395.613 230.295 395.585 230.463 395.528C230.631 395.471 230.774 395.386 230.893 395.272C231.013 395.159 231.104 395.019 231.166 394.855L232.845 394.965C232.76 395.369 232.585 395.721 232.321 396.022C232.06 396.321 231.721 396.554 231.307 396.721C230.895 396.886 230.419 396.968 229.879 396.968ZM235.883 393.056V396.84H234.068V390.295H235.798V391.45H235.875C236.02 391.069 236.263 390.768 236.604 390.546C236.944 390.322 237.358 390.21 237.844 390.21C238.298 390.21 238.694 390.309 239.033 390.508C239.371 390.707 239.633 390.991 239.821 391.36C240.008 391.727 240.102 392.164 240.102 392.673V396.84H238.287V392.997C238.29 392.596 238.187 392.284 237.98 392.059C237.773 391.832 237.487 391.718 237.123 391.718C236.879 391.718 236.663 391.771 236.476 391.876C236.291 391.981 236.146 392.134 236.041 392.336C235.939 392.535 235.886 392.775 235.883 393.056ZM245.014 390.295V391.659H241.073V390.295H245.014ZM241.968 388.727H243.783V394.829C243.783 394.997 243.808 395.127 243.86 395.221C243.911 395.312 243.982 395.376 244.073 395.413C244.166 395.45 244.274 395.468 244.397 395.468C244.482 395.468 244.567 395.461 244.652 395.447C244.737 395.43 244.803 395.417 244.848 395.409L245.134 396.759C245.043 396.788 244.915 396.821 244.75 396.857C244.585 396.897 244.385 396.921 244.149 396.93C243.712 396.947 243.328 396.889 242.999 396.755C242.672 396.622 242.418 396.414 242.236 396.133C242.054 395.852 241.965 395.497 241.968 395.068V388.727ZM249.11 396.968C248.436 396.968 247.857 396.832 247.371 396.559C246.888 396.284 246.516 395.894 246.254 395.392C245.993 394.886 245.862 394.288 245.862 393.598C245.862 392.924 245.993 392.333 246.254 391.825C246.516 391.316 246.884 390.92 247.358 390.636C247.835 390.352 248.395 390.21 249.037 390.21C249.469 390.21 249.871 390.279 250.243 390.419C250.618 390.555 250.945 390.761 251.223 391.036C251.504 391.312 251.723 391.659 251.879 392.076C252.036 392.491 252.114 392.977 252.114 393.534V394.032H246.587V392.907H250.405C250.405 392.646 250.348 392.414 250.235 392.213C250.121 392.011 249.963 391.853 249.762 391.74C249.563 391.623 249.331 391.565 249.067 391.565C248.791 391.565 248.547 391.629 248.334 391.757C248.124 391.882 247.959 392.051 247.84 392.264C247.72 392.474 247.659 392.708 247.656 392.967V394.036C247.656 394.36 247.716 394.64 247.835 394.876C247.958 395.112 248.129 395.294 248.351 395.421C248.573 395.549 248.835 395.613 249.139 395.613C249.341 395.613 249.526 395.585 249.693 395.528C249.861 395.471 250.004 395.386 250.124 395.272C250.243 395.159 250.334 395.019 250.397 394.855L252.076 394.965C251.99 395.369 251.816 395.721 251.551 396.022C251.29 396.321 250.952 396.554 250.537 396.721C250.125 396.886 249.649 396.968 249.11 396.968ZM253.299 396.84V390.295H255.058V391.437H255.127C255.246 391.031 255.446 390.724 255.728 390.517C256.009 390.306 256.333 390.201 256.699 390.201C256.79 390.201 256.888 390.207 256.993 390.218C257.098 390.23 257.191 390.245 257.27 390.265V391.876C257.185 391.85 257.067 391.828 256.916 391.808C256.766 391.788 256.628 391.778 256.503 391.778C256.236 391.778 255.997 391.836 255.787 391.953C255.58 392.066 255.415 392.225 255.293 392.43C255.174 392.634 255.114 392.87 255.114 393.137V396.84H253.299Z" fill="white"/>
<path d="M126.648 408.83V416.102H125.795L121.832 410.392H121.761V416.102H120.881V408.83H121.733L125.71 414.554H125.781V408.83H126.648ZM130.583 416.216C130.058 416.216 129.604 416.1 129.223 415.868C128.844 415.634 128.552 415.307 128.346 414.888C128.142 414.467 128.041 413.976 128.041 413.418C128.041 412.859 128.142 412.367 128.346 411.94C128.552 411.512 128.838 411.178 129.205 410.939C129.575 410.698 130.006 410.577 130.498 410.577C130.782 410.577 131.063 410.624 131.34 410.719C131.617 410.814 131.869 410.967 132.096 411.181C132.323 411.391 132.504 411.671 132.639 412.019C132.774 412.367 132.842 412.795 132.842 413.304V413.659H128.637V412.935H131.989C131.989 412.627 131.928 412.352 131.805 412.111C131.684 411.869 131.511 411.679 131.286 411.539C131.064 411.4 130.801 411.33 130.498 411.33C130.164 411.33 129.875 411.413 129.631 411.578C129.39 411.742 129.204 411.955 129.074 412.217C128.944 412.48 128.879 412.762 128.879 413.063V413.546C128.879 413.958 128.95 414.307 129.092 414.593C129.236 414.877 129.436 415.094 129.692 415.243C129.947 415.39 130.245 415.463 130.583 415.463C130.803 415.463 131.002 415.432 131.18 415.371C131.36 415.307 131.515 415.212 131.645 415.087C131.775 414.959 131.876 414.8 131.947 414.611L132.756 414.838C132.671 415.113 132.528 415.354 132.327 415.563C132.126 415.769 131.877 415.93 131.581 416.046C131.285 416.159 130.952 416.216 130.583 416.216ZM134.595 410.648L135.902 412.878L137.209 410.648H138.175L136.413 413.375L138.175 416.102H137.209L135.902 413.986L134.595 416.102H133.629L135.362 413.375L133.629 410.648H134.595ZM141.743 410.648V411.358H138.916V410.648H141.743ZM139.74 409.341H140.578V414.54C140.578 414.777 140.612 414.954 140.681 415.073C140.752 415.189 140.842 415.267 140.951 415.307C141.062 415.345 141.179 415.364 141.302 415.364C141.395 415.364 141.47 415.359 141.53 415.35C141.589 415.338 141.636 415.328 141.672 415.321L141.842 416.074C141.785 416.095 141.706 416.117 141.604 416.138C141.502 416.162 141.373 416.173 141.217 416.173C140.98 416.173 140.748 416.123 140.521 416.021C140.296 415.919 140.109 415.764 139.96 415.556C139.813 415.347 139.74 415.084 139.74 414.767V409.341ZM147.421 416.23C147.075 416.23 146.762 416.165 146.48 416.035C146.198 415.902 145.974 415.712 145.809 415.463C145.643 415.212 145.56 414.909 145.56 414.554C145.56 414.242 145.622 413.988 145.745 413.794C145.868 413.598 146.032 413.444 146.238 413.333C146.444 413.221 146.672 413.138 146.92 413.084C147.171 413.027 147.423 412.982 147.677 412.949C148.008 412.906 148.277 412.874 148.483 412.853C148.691 412.829 148.843 412.79 148.937 412.736C149.034 412.681 149.083 412.587 149.083 412.452V412.423C149.083 412.073 148.987 411.801 148.795 411.607C148.606 411.413 148.318 411.315 147.932 411.315C147.532 411.315 147.218 411.403 146.991 411.578C146.764 411.753 146.604 411.94 146.512 412.139L145.716 411.855C145.858 411.524 146.048 411.266 146.285 411.081C146.524 410.894 146.784 410.764 147.066 410.69C147.35 410.615 147.629 410.577 147.904 410.577C148.079 410.577 148.28 410.598 148.508 410.641C148.737 410.681 148.959 410.765 149.172 410.893C149.387 411.021 149.566 411.214 149.708 411.472C149.85 411.73 149.921 412.075 149.921 412.509V416.102H149.083V415.364H149.04C148.983 415.482 148.889 415.609 148.756 415.744C148.624 415.879 148.447 415.994 148.227 416.088C148.007 416.183 147.738 416.23 147.421 416.23ZM147.549 415.477C147.88 415.477 148.16 415.412 148.387 415.282C148.616 415.152 148.789 414.984 148.905 414.778C149.024 414.572 149.083 414.355 149.083 414.128V413.361C149.047 413.404 148.969 413.443 148.848 413.478C148.73 413.511 148.593 413.541 148.436 413.567C148.283 413.591 148.132 413.612 147.985 413.631C147.841 413.647 147.724 413.662 147.634 413.673C147.416 413.702 147.213 413.748 147.023 413.812C146.836 413.873 146.685 413.967 146.569 414.092C146.455 414.216 146.398 414.384 146.398 414.597C146.398 414.888 146.506 415.108 146.721 415.257C146.939 415.404 147.215 415.477 147.549 415.477ZM151.451 416.102V410.648H152.26V411.472H152.317C152.416 411.202 152.596 410.983 152.857 410.815C153.117 410.647 153.411 410.563 153.737 410.563C153.799 410.563 153.876 410.564 153.968 410.566C154.061 410.569 154.13 410.572 154.178 410.577V411.429C154.149 411.422 154.084 411.411 153.982 411.397C153.883 411.381 153.778 411.372 153.666 411.372C153.401 411.372 153.165 411.428 152.956 411.539C152.75 411.648 152.587 411.8 152.466 411.994C152.348 412.186 152.289 412.405 152.289 412.651V416.102H151.451ZM155.171 416.102V410.648H155.981V411.472H156.038C156.137 411.202 156.317 410.983 156.577 410.815C156.838 410.647 157.131 410.563 157.458 410.563C157.52 410.563 157.597 410.564 157.689 410.566C157.781 410.569 157.851 410.572 157.898 410.577V411.429C157.87 411.422 157.805 411.411 157.703 411.397C157.604 411.381 157.498 411.372 157.387 411.372C157.122 411.372 156.885 411.428 156.677 411.539C156.471 411.648 156.308 411.8 156.187 411.994C156.068 412.186 156.009 412.405 156.009 412.651V416.102H155.171ZM158.892 416.102V410.648H159.73V416.102H158.892ZM159.318 409.739C159.155 409.739 159.014 409.683 158.895 409.572C158.779 409.461 158.721 409.327 158.721 409.171C158.721 409.014 158.779 408.881 158.895 408.769C159.014 408.658 159.155 408.602 159.318 408.602C159.481 408.602 159.621 408.658 159.737 408.769C159.855 408.881 159.915 409.014 159.915 409.171C159.915 409.327 159.855 409.461 159.737 409.572C159.621 409.683 159.481 409.739 159.318 409.739ZM165.725 410.648L163.708 416.102H162.856L160.839 410.648H161.748L163.254 414.994H163.31L164.816 410.648H165.725ZM168.27 416.23C167.925 416.23 167.611 416.165 167.329 416.035C167.048 415.902 166.824 415.712 166.658 415.463C166.493 415.212 166.41 414.909 166.41 414.554C166.41 414.242 166.471 413.988 166.594 413.794C166.717 413.598 166.882 413.444 167.088 413.333C167.294 413.221 167.521 413.138 167.77 413.084C168.021 413.027 168.273 412.982 168.526 412.949C168.858 412.906 169.126 412.874 169.332 412.853C169.541 412.829 169.692 412.79 169.787 412.736C169.884 412.681 169.932 412.587 169.932 412.452V412.423C169.932 412.073 169.837 411.801 169.645 411.607C169.455 411.413 169.168 411.315 168.782 411.315C168.382 411.315 168.068 411.403 167.841 411.578C167.614 411.753 167.454 411.94 167.361 412.139L166.566 411.855C166.708 411.524 166.897 411.266 167.134 411.081C167.373 410.894 167.634 410.764 167.915 410.69C168.199 410.615 168.479 410.577 168.753 410.577C168.929 410.577 169.13 410.598 169.357 410.641C169.587 410.681 169.808 410.765 170.021 410.893C170.237 411.021 170.415 411.214 170.557 411.472C170.699 411.73 170.77 412.075 170.77 412.509V416.102H169.932V415.364H169.89C169.833 415.482 169.738 415.609 169.606 415.744C169.473 415.879 169.297 415.994 169.077 416.088C168.856 416.183 168.588 416.23 168.27 416.23ZM168.398 415.477C168.73 415.477 169.009 415.412 169.236 415.282C169.466 415.152 169.639 414.984 169.755 414.778C169.873 414.572 169.932 414.355 169.932 414.128V413.361C169.897 413.404 169.819 413.443 169.698 413.478C169.58 413.511 169.442 413.541 169.286 413.567C169.132 413.591 168.982 413.612 168.835 413.631C168.691 413.647 168.574 413.662 168.484 413.673C168.266 413.702 168.062 413.748 167.873 413.812C167.686 413.873 167.534 413.967 167.418 414.092C167.305 414.216 167.248 414.384 167.248 414.597C167.248 414.888 167.355 415.108 167.571 415.257C167.789 415.404 168.065 415.477 168.398 415.477ZM173.138 408.83V416.102H172.3V408.83H173.138Z" fill="#666666"/>
<path d="M330.642 397.031V394.609L336.715 385.043H338.803V388.395H337.567L333.739 394.453V394.567H342.368V397.031H330.642ZM337.624 399.588V396.293L337.681 395.22V385.043H340.564V399.588H337.624ZM349.074 399.588V388.679H351.958V390.604H352.086C352.313 389.964 352.692 389.46 353.222 389.091C353.752 388.722 354.387 388.537 355.126 388.537C355.874 388.537 356.511 388.724 357.036 389.098C357.562 389.467 357.912 389.969 358.087 390.604H358.201C358.423 389.979 358.826 389.479 359.408 389.105C359.995 388.726 360.689 388.537 361.489 388.537C362.507 388.537 363.333 388.861 363.968 389.51C364.607 390.154 364.927 391.068 364.927 392.251V399.588H361.908V392.848C361.908 392.242 361.747 391.787 361.425 391.484C361.103 391.181 360.701 391.03 360.218 391.03C359.669 391.03 359.24 391.205 358.932 391.555C358.625 391.901 358.471 392.358 358.471 392.926V399.588H355.538V392.784C355.538 392.249 355.384 391.823 355.076 391.506C354.773 391.188 354.373 391.03 353.876 391.03C353.539 391.03 353.236 391.115 352.966 391.285C352.701 391.451 352.491 391.686 352.334 391.989C352.178 392.287 352.1 392.637 352.1 393.04V399.588H349.074ZM367.317 399.588V388.679H370.342V399.588H367.317ZM368.837 387.273C368.387 387.273 368.001 387.124 367.679 386.825C367.362 386.522 367.203 386.16 367.203 385.739C367.203 385.322 367.362 384.964 367.679 384.666C368.001 384.363 368.387 384.212 368.837 384.212C369.286 384.212 369.67 384.363 369.987 384.666C370.309 384.964 370.47 385.322 370.47 385.739C370.47 386.16 370.309 386.522 369.987 386.825C369.67 387.124 369.286 387.273 368.837 387.273ZM375.791 393.281V399.588H372.766V388.679H375.649V390.604H375.777C376.019 389.969 376.424 389.467 376.992 389.098C377.56 388.724 378.249 388.537 379.058 388.537C379.816 388.537 380.477 388.703 381.04 389.034C381.603 389.365 382.041 389.839 382.354 390.454C382.666 391.065 382.823 391.794 382.823 392.642V399.588H379.797V393.182C379.802 392.514 379.631 391.993 379.286 391.619C378.94 391.24 378.464 391.051 377.858 391.051C377.451 391.051 377.091 391.139 376.779 391.314C376.471 391.489 376.229 391.745 376.054 392.081C375.884 392.412 375.796 392.812 375.791 393.281Z" fill="#E53935"/>
<path d="M322.223 418.229V417.589L324.624 414.961C324.906 414.654 325.138 414.386 325.32 414.159C325.502 413.929 325.637 413.714 325.725 413.513C325.815 413.309 325.86 413.096 325.86 412.873C325.86 412.618 325.798 412.396 325.675 412.209C325.554 412.022 325.389 411.878 325.178 411.776C324.967 411.674 324.731 411.623 324.468 411.623C324.188 411.623 323.945 411.681 323.736 411.797C323.53 411.911 323.37 412.071 323.257 412.277C323.146 412.483 323.09 412.724 323.09 413.001H322.252C322.252 412.575 322.35 412.201 322.547 411.879C322.743 411.557 323.011 411.306 323.349 411.126C323.69 410.946 324.072 410.856 324.496 410.856C324.922 410.856 325.3 410.946 325.629 411.126C325.958 411.306 326.216 411.549 326.403 411.854C326.59 412.16 326.684 412.499 326.684 412.873C326.684 413.141 326.635 413.403 326.538 413.658C326.443 413.912 326.278 414.194 326.041 414.507C325.807 414.817 325.481 415.196 325.064 415.643L323.431 417.39V417.447H326.812V418.229H322.223ZM334.968 413.996L334.216 414.209C334.168 414.083 334.098 413.961 334.006 413.843C333.916 413.722 333.793 413.623 333.637 413.545C333.481 413.466 333.281 413.427 333.037 413.427C332.703 413.427 332.425 413.504 332.202 413.658C331.982 413.81 331.872 414.003 331.872 414.237C331.872 414.445 331.948 414.61 332.099 414.731C332.251 414.851 332.487 414.952 332.809 415.032L333.619 415.231C334.107 415.35 334.47 415.531 334.709 415.775C334.948 416.016 335.068 416.327 335.068 416.709C335.068 417.021 334.978 417.3 334.798 417.547C334.62 417.793 334.372 417.987 334.052 418.129C333.733 418.271 333.361 418.342 332.937 418.342C332.381 418.342 331.92 418.221 331.556 417.98C331.191 417.738 330.96 417.386 330.863 416.922L331.659 416.723C331.735 417.016 331.878 417.237 332.089 417.383C332.302 417.53 332.58 417.604 332.923 417.604C333.314 417.604 333.624 417.521 333.853 417.355C334.085 417.187 334.201 416.986 334.201 416.751C334.201 416.562 334.135 416.403 334.003 416.275C333.87 416.145 333.666 416.048 333.392 415.984L332.483 415.771C331.983 415.653 331.616 415.469 331.382 415.221C331.15 414.97 331.034 414.656 331.034 414.28C331.034 413.972 331.12 413.7 331.293 413.463C331.468 413.226 331.706 413.04 332.007 412.905C332.31 412.77 332.653 412.703 333.037 412.703C333.576 412.703 334 412.821 334.308 413.058C334.618 413.295 334.838 413.607 334.968 413.996ZM338.702 412.774V413.484H335.875V412.774H338.702ZM336.699 411.467H337.537V416.666C337.537 416.903 337.571 417.08 337.64 417.199C337.711 417.315 337.801 417.393 337.91 417.433C338.021 417.471 338.138 417.49 338.261 417.49C338.354 417.49 338.429 417.485 338.489 417.476C338.548 417.464 338.595 417.454 338.631 417.447L338.801 418.2C338.744 418.221 338.665 418.243 338.563 418.264C338.461 418.288 338.332 418.3 338.176 418.3C337.939 418.3 337.707 418.249 337.48 418.147C337.255 418.045 337.068 417.89 336.919 417.682C336.772 417.473 336.699 417.211 336.699 416.893V411.467ZM342.12 418.342C341.627 418.342 341.195 418.225 340.823 417.991C340.454 417.756 340.165 417.428 339.957 417.007C339.751 416.586 339.648 416.093 339.648 415.53C339.648 414.961 339.751 414.465 339.957 414.042C340.165 413.618 340.454 413.289 340.823 413.055C341.195 412.82 341.627 412.703 342.12 412.703C342.612 412.703 343.043 412.82 343.412 413.055C343.784 413.289 344.073 413.618 344.279 414.042C344.487 414.465 344.591 414.961 344.591 415.53C344.591 416.093 344.487 416.586 344.279 417.007C344.073 417.428 343.784 417.756 343.412 417.991C343.043 418.225 342.612 418.342 342.12 418.342ZM342.12 417.589C342.494 417.589 342.801 417.493 343.043 417.302C343.284 417.11 343.463 416.858 343.579 416.545C343.695 416.233 343.753 415.894 343.753 415.53C343.753 415.165 343.695 414.825 343.579 414.51C343.463 414.196 343.284 413.941 343.043 413.747C342.801 413.553 342.494 413.456 342.12 413.456C341.746 413.456 341.438 413.553 341.196 413.747C340.955 413.941 340.776 414.196 340.66 414.51C340.544 414.825 340.486 415.165 340.486 415.53C340.486 415.894 340.544 416.233 340.66 416.545C340.776 416.858 340.955 417.11 341.196 417.302C341.438 417.493 341.746 417.589 342.12 417.589ZM345.87 420.274V412.774H346.68V413.64H346.78C346.841 413.546 346.926 413.425 347.035 413.278C347.147 413.129 347.305 412.997 347.511 412.881C347.719 412.762 348.001 412.703 348.356 412.703C348.816 412.703 349.22 412.818 349.571 413.047C349.921 413.277 350.195 413.603 350.391 414.024C350.588 414.445 350.686 414.943 350.686 415.515C350.686 416.093 350.588 416.594 350.391 417.018C350.195 417.439 349.922 417.766 349.574 417.998C349.226 418.227 348.825 418.342 348.37 418.342C348.02 418.342 347.74 418.284 347.529 418.168C347.318 418.05 347.156 417.916 347.042 417.767C346.929 417.615 346.841 417.49 346.78 417.39H346.709V420.274H345.87ZM346.694 415.501C346.694 415.913 346.755 416.277 346.875 416.591C346.996 416.904 347.173 417.149 347.405 417.327C347.637 417.502 347.921 417.589 348.257 417.589C348.607 417.589 348.9 417.497 349.134 417.312C349.371 417.125 349.548 416.874 349.667 416.559C349.787 416.242 349.848 415.89 349.848 415.501C349.848 415.118 349.789 414.772 349.67 414.464C349.554 414.154 349.378 413.909 349.141 413.729C348.907 413.547 348.612 413.456 348.257 413.456C347.916 413.456 347.629 413.542 347.397 413.715C347.165 413.885 346.99 414.125 346.872 414.432C346.754 414.738 346.694 415.094 346.694 415.501ZM355.828 413.996L355.075 414.209C355.028 414.083 354.958 413.961 354.865 413.843C354.776 413.722 354.652 413.623 354.496 413.545C354.34 413.466 354.14 413.427 353.896 413.427C353.562 413.427 353.284 413.504 353.062 413.658C352.841 413.81 352.731 414.003 352.731 414.237C352.731 414.445 352.807 414.61 352.959 414.731C353.11 414.851 353.347 414.952 353.669 415.032L354.478 415.231C354.966 415.35 355.33 415.531 355.569 415.775C355.808 416.016 355.927 416.327 355.927 416.709C355.927 417.021 355.837 417.3 355.657 417.547C355.48 417.793 355.231 417.987 354.912 418.129C354.592 418.271 354.22 418.342 353.797 418.342C353.24 418.342 352.78 418.221 352.415 417.98C352.051 417.738 351.82 417.386 351.723 416.922L352.518 416.723C352.594 417.016 352.737 417.237 352.948 417.383C353.161 417.53 353.439 417.604 353.782 417.604C354.173 417.604 354.483 417.521 354.713 417.355C354.945 417.187 355.061 416.986 355.061 416.751C355.061 416.562 354.995 416.403 354.862 416.275C354.729 416.145 354.526 416.048 354.251 415.984L353.342 415.771C352.843 415.653 352.476 415.469 352.241 415.221C352.009 414.97 351.893 414.656 351.893 414.28C351.893 413.972 351.98 413.7 352.152 413.463C352.328 413.226 352.566 413.04 352.866 412.905C353.169 412.77 353.513 412.703 353.896 412.703C354.436 412.703 354.86 412.821 355.167 413.058C355.477 413.295 355.698 413.607 355.828 413.996ZM361.606 418.356C361.261 418.356 360.947 418.291 360.665 418.161C360.384 418.028 360.16 417.838 359.994 417.589C359.829 417.338 359.746 417.035 359.746 416.68C359.746 416.368 359.807 416.114 359.93 415.92C360.053 415.724 360.218 415.57 360.424 415.459C360.63 415.347 360.857 415.265 361.106 415.21C361.357 415.153 361.609 415.108 361.862 415.075C362.194 415.032 362.462 415.001 362.668 414.979C362.877 414.956 363.028 414.916 363.123 414.862C363.22 414.808 363.268 414.713 363.268 414.578V414.55C363.268 414.199 363.172 413.927 362.981 413.733C362.791 413.539 362.504 413.442 362.118 413.442C361.718 413.442 361.404 413.529 361.177 413.704C360.949 413.88 360.79 414.067 360.697 414.265L359.902 413.981C360.044 413.65 360.233 413.392 360.47 413.207C360.709 413.02 360.97 412.89 361.251 412.817C361.535 412.741 361.815 412.703 362.089 412.703C362.265 412.703 362.466 412.724 362.693 412.767C362.923 412.807 363.144 412.891 363.357 413.019C363.573 413.147 363.751 413.34 363.893 413.598C364.035 413.856 364.106 414.202 364.106 414.635V418.229H363.268V417.49H363.226C363.169 417.608 363.074 417.735 362.942 417.87C362.809 418.005 362.633 418.12 362.413 418.214C362.192 418.309 361.924 418.356 361.606 418.356ZM361.734 417.604C362.066 417.604 362.345 417.538 362.572 417.408C362.802 417.278 362.975 417.11 363.091 416.904C363.209 416.698 363.268 416.481 363.268 416.254V415.487C363.233 415.53 363.155 415.569 363.034 415.604C362.916 415.637 362.778 415.667 362.622 415.693C362.468 415.717 362.318 415.738 362.171 415.757C362.027 415.773 361.909 415.788 361.82 415.8C361.602 415.828 361.398 415.874 361.209 415.938C361.022 416 360.87 416.093 360.754 416.219C360.641 416.342 360.584 416.51 360.584 416.723C360.584 417.014 360.691 417.234 360.907 417.383C361.125 417.53 361.4 417.604 361.734 417.604ZM366.872 418.229L365.21 412.774H366.091L367.27 416.95H367.326L368.491 412.774H369.386L370.537 416.936H370.593L371.772 412.774H372.653L370.991 418.229H370.167L368.974 414.038H368.889L367.696 418.229H366.872ZM375.366 418.356C375.021 418.356 374.707 418.291 374.425 418.161C374.143 418.028 373.92 417.838 373.754 417.589C373.588 417.338 373.505 417.035 373.505 416.68C373.505 416.368 373.567 416.114 373.69 415.92C373.813 415.724 373.978 415.57 374.184 415.459C374.39 415.347 374.617 415.265 374.865 415.21C375.116 415.153 375.369 415.108 375.622 415.075C375.953 415.032 376.222 415.001 376.428 414.979C376.636 414.956 376.788 414.916 376.883 414.862C376.98 414.808 377.028 414.713 377.028 414.578V414.55C377.028 414.199 376.932 413.927 376.74 413.733C376.551 413.539 376.263 413.442 375.878 413.442C375.477 413.442 375.164 413.529 374.937 413.704C374.709 413.88 374.549 414.067 374.457 414.265L373.662 413.981C373.804 413.65 373.993 413.392 374.23 413.207C374.469 413.02 374.729 412.89 375.011 412.817C375.295 412.741 375.575 412.703 375.849 412.703C376.024 412.703 376.226 412.724 376.453 412.767C376.682 412.807 376.904 412.891 377.117 413.019C377.332 413.147 377.511 413.34 377.653 413.598C377.795 413.856 377.866 414.202 377.866 414.635V418.229H377.028V417.49H376.986C376.929 417.608 376.834 417.735 376.701 417.87C376.569 418.005 376.392 418.12 376.172 418.214C375.952 418.309 375.683 418.356 375.366 418.356ZM375.494 417.604C375.825 417.604 376.105 417.538 376.332 417.408C376.562 417.278 376.735 417.11 376.851 416.904C376.969 416.698 377.028 416.481 377.028 416.254V415.487C376.993 415.53 376.915 415.569 376.794 415.604C376.675 415.637 376.538 415.667 376.382 415.693C376.228 415.717 376.078 415.738 375.931 415.757C375.786 415.773 375.669 415.788 375.579 415.8C375.361 415.828 375.158 415.874 374.968 415.938C374.781 416 374.63 416.093 374.514 416.219C374.4 416.342 374.343 416.51 374.343 416.723C374.343 417.014 374.451 417.234 374.667 417.383C374.884 417.53 375.16 417.604 375.494 417.604ZM379.74 420.274C379.598 420.274 379.472 420.262 379.36 420.238C379.249 420.217 379.172 420.196 379.13 420.175L379.343 419.436C379.546 419.488 379.726 419.507 379.882 419.493C380.039 419.479 380.177 419.409 380.298 419.283C380.421 419.16 380.533 418.96 380.635 418.683L380.791 418.257L378.774 412.774H379.684L381.189 417.121H381.246L382.752 412.774H383.661L381.345 419.024C381.241 419.306 381.112 419.539 380.958 419.724C380.804 419.911 380.626 420.049 380.422 420.139C380.221 420.229 379.994 420.274 379.74 420.274Z" fill="#666666"/>
</svg>
