<svg width="171" height="44" viewBox="0 0 171 44" fill="none" xmlns="http://www.w3.org/2000/svg">
<path d="M81.4487 21V11.5455H85.2342C85.9297 11.5455 86.5099 11.6486 86.9746 11.8548C87.4393 12.061 87.7886 12.3472 88.0225 12.7134C88.2565 13.0766 88.3734 13.4951 88.3734 13.9691C88.3734 14.3384 88.2995 14.6631 88.1518 14.9432C88.0041 15.2202 87.801 15.4479 87.5424 15.6264C87.287 15.8018 86.9946 15.9265 86.6653 16.0004V16.0927C87.0254 16.1081 87.3624 16.2096 87.6763 16.3974C87.9933 16.5851 88.2503 16.8482 88.4473 17.1868C88.6442 17.5223 88.7427 17.9223 88.7427 18.3871C88.7427 18.8887 88.6181 19.3365 88.3688 19.7305C88.1226 20.1213 87.7579 20.4306 87.2747 20.6584C86.7915 20.8861 86.196 21 85.4881 21H81.4487ZM83.4476 19.3658H85.0772C85.6343 19.3658 86.0405 19.2596 86.296 19.0472C86.5514 18.8318 86.6792 18.5456 86.6792 18.1886C86.6792 17.927 86.6161 17.6961 86.4899 17.4961C86.3637 17.296 86.1837 17.1391 85.9498 17.0252C85.7189 16.9113 85.4435 16.8544 85.1234 16.8544H83.4476V19.3658ZM83.4476 15.5018H84.9295C85.2034 15.5018 85.4466 15.4541 85.6589 15.3587C85.8743 15.2602 86.0436 15.1217 86.1667 14.9432C86.2929 14.7647 86.356 14.5508 86.356 14.3015C86.356 13.9599 86.2344 13.6844 85.9913 13.4751C85.7512 13.2659 85.4096 13.1612 84.9664 13.1612H83.4476V15.5018ZM95.8833 11.5455H97.8822V17.6854C97.8822 18.3748 97.7175 18.978 97.3882 19.495C97.062 20.0121 96.605 20.4152 96.0171 20.7045C95.4293 20.9908 94.7445 21.1339 93.9628 21.1339C93.178 21.1339 92.4917 20.9908 91.9039 20.7045C91.316 20.4152 90.859 20.0121 90.5328 19.495C90.2065 18.978 90.0434 18.3748 90.0434 17.6854V11.5455H92.0423V17.5146C92.0423 17.8746 92.1208 18.1947 92.2778 18.4748C92.4378 18.7549 92.6625 18.9749 92.9518 19.1349C93.2411 19.295 93.5781 19.375 93.9628 19.375C94.3506 19.375 94.6876 19.295 94.9738 19.1349C95.2631 18.9749 95.4862 18.7549 95.6432 18.4748C95.8032 18.1947 95.8833 17.8746 95.8833 17.5146V11.5455ZM104.656 14.2646C104.619 13.8922 104.46 13.6029 104.18 13.3967C103.9 13.1905 103.52 13.0874 103.04 13.0874C102.714 13.0874 102.438 13.1335 102.214 13.2259C101.989 13.3151 101.817 13.4397 101.697 13.5998C101.58 13.7598 101.521 13.9414 101.521 14.1445C101.515 14.3138 101.55 14.4615 101.627 14.5877C101.707 14.7139 101.817 14.8232 101.955 14.9155C102.094 15.0047 102.254 15.0832 102.435 15.1509C102.617 15.2156 102.811 15.271 103.017 15.3171L103.866 15.5202C104.279 15.6126 104.657 15.7357 105.002 15.8896C105.347 16.0434 105.645 16.2327 105.898 16.4574C106.15 16.6821 106.345 16.9467 106.484 17.2514C106.625 17.5561 106.698 17.9054 106.701 18.2994C106.698 18.878 106.55 19.3796 106.258 19.8043C105.968 20.226 105.55 20.5537 105.002 20.7876C104.457 21.0185 103.8 21.1339 103.031 21.1339C102.267 21.1339 101.603 21.0169 101.036 20.783C100.473 20.5491 100.033 20.2029 99.7161 19.7443C99.4022 19.2827 99.2375 18.7118 99.2221 18.0316H101.156C101.178 18.3486 101.269 18.6133 101.429 18.8256C101.592 19.0349 101.809 19.1934 102.08 19.3011C102.354 19.4058 102.663 19.4581 103.008 19.4581C103.346 19.4581 103.64 19.4089 103.889 19.3104C104.142 19.2119 104.337 19.0749 104.476 18.8995C104.614 18.7241 104.683 18.5225 104.683 18.2947C104.683 18.0824 104.62 17.9039 104.494 17.7592C104.371 17.6146 104.189 17.4915 103.949 17.3899C103.712 17.2884 103.422 17.196 103.077 17.1129L102.047 16.8544C101.25 16.6605 100.621 16.3574 100.159 15.945C99.6976 15.5326 99.4683 14.977 99.4714 14.2784C99.4683 13.706 99.6207 13.2058 99.9284 12.7781C100.239 12.3503 100.666 12.0163 101.207 11.7763C101.749 11.5362 102.364 11.4162 103.054 11.4162C103.756 11.4162 104.368 11.5362 104.891 11.7763C105.417 12.0163 105.827 12.3503 106.119 12.7781C106.412 13.2058 106.562 13.7013 106.572 14.2646H104.656ZM110.694 13.1935V11.5455H118.459V13.1935H115.564V21H113.589V13.1935H110.694ZM119.738 21V11.5455H123.468C124.182 11.5455 124.791 11.6732 125.296 11.9286C125.804 12.181 126.19 12.5395 126.455 13.0043C126.722 13.4659 126.856 14.0091 126.856 14.6339C126.856 15.2617 126.721 15.8018 126.45 16.2543C126.179 16.7036 125.787 17.0483 125.273 17.2884C124.762 17.5284 124.143 17.6484 123.417 17.6484H120.92V16.0419H123.094C123.476 16.0419 123.793 15.9896 124.045 15.8849C124.297 15.7803 124.485 15.6233 124.608 15.4141C124.734 15.2048 124.797 14.9447 124.797 14.6339C124.797 14.32 124.734 14.0553 124.608 13.8398C124.485 13.6244 124.296 13.4613 124.04 13.3505C123.788 13.2366 123.469 13.1797 123.085 13.1797H121.737V21H119.738ZM124.844 16.6974L127.193 21H124.987L122.688 16.6974H124.844ZM129.899 21H127.757L131.02 11.5455H133.596L136.856 21H134.714L132.345 13.706H132.271L129.899 21ZM129.765 17.2837H134.824V18.8441H129.765V17.2837ZM145.891 14.8555H143.869C143.832 14.5939 143.757 14.3615 143.643 14.1584C143.529 13.9522 143.383 13.7768 143.204 13.6321C143.026 13.4875 142.82 13.3767 142.586 13.2997C142.355 13.2228 142.104 13.1843 141.833 13.1843C141.344 13.1843 140.918 13.3059 140.555 13.549C140.191 13.7891 139.91 14.1399 139.71 14.6016C139.51 15.0601 139.41 15.6172 139.41 16.2727C139.41 16.9467 139.51 17.513 139.71 17.9716C139.913 18.4302 140.196 18.7764 140.559 19.0103C140.922 19.2442 141.342 19.3612 141.82 19.3612C142.087 19.3612 142.335 19.3258 142.563 19.255C142.794 19.1842 142.998 19.0811 143.177 18.9457C143.355 18.8072 143.503 18.6394 143.62 18.4425C143.74 18.2455 143.823 18.0208 143.869 17.7685L145.891 17.7777C145.839 18.2116 145.708 18.6302 145.499 19.0334C145.293 19.4335 145.014 19.792 144.663 20.109C144.315 20.4229 143.9 20.6722 143.417 20.8569C142.937 21.0385 142.393 21.1293 141.787 21.1293C140.944 21.1293 140.19 20.9384 139.525 20.5568C138.863 20.1752 138.34 19.6228 137.956 18.8995C137.574 18.1763 137.383 17.3007 137.383 16.2727C137.383 15.2417 137.577 14.3646 137.965 13.6413C138.353 12.9181 138.879 12.3672 139.544 11.9886C140.208 11.607 140.956 11.4162 141.787 11.4162C142.335 11.4162 142.843 11.4931 143.311 11.647C143.782 11.8009 144.199 12.0256 144.562 12.321C144.925 12.6134 145.22 12.9719 145.448 13.3967C145.679 13.8214 145.827 14.3076 145.891 14.8555ZM147.325 21V11.5455H149.324V15.7141H149.448L152.851 11.5455H155.247L151.738 15.7788L155.288 21H152.897L150.307 17.1129L149.324 18.3132V21H147.325Z" fill="white"/>
<path d="M81.3315 34.0728V28.2546H83.2974C83.752 28.2546 84.1251 28.3322 84.4167 28.4875C84.7084 28.6409 84.9243 28.8521 85.0645 29.121C85.2046 29.39 85.2747 29.6959 85.2747 30.0387C85.2747 30.3815 85.2046 30.6854 85.0645 30.9506C84.9243 31.2157 84.7093 31.4241 84.4196 31.5756C84.1298 31.7252 83.7595 31.8 83.3088 31.8H81.7179V31.1637H83.286C83.5967 31.1637 83.8467 31.1182 84.036 31.0273C84.2273 30.9364 84.3656 30.8076 84.4508 30.6409C84.5379 30.4724 84.5815 30.2716 84.5815 30.0387C84.5815 29.8057 84.5379 29.6021 84.4508 29.4279C84.3637 29.2536 84.2245 29.1192 84.0332 29.0245C83.8419 28.9279 83.5891 28.8796 83.2747 28.8796H82.036V34.0728H81.3315ZM84.0701 31.4591L85.502 34.0728H84.6838L83.2747 31.4591H84.0701ZM86.4487 34.0728V28.2546H89.96V28.8796H87.1532V30.8455H89.7782V31.4705H87.1532V33.4478H90.0055V34.0728H86.4487ZM91.4686 34.0728H90.7299L92.8663 28.2546H93.5936L95.7299 34.0728H94.9913L93.2527 29.175H93.2072L91.4686 34.0728ZM91.7413 31.8H94.7186V32.425H91.7413V31.8ZM96.6362 34.0728V28.2546H97.3407V33.4478H100.045V34.0728H96.6362ZM102.866 30.8512V31.4762H100.32V30.8512H102.866ZM103.224 28.8796V28.2546H107.588V28.8796H105.758V34.0728H105.054V28.8796H103.224ZM109.38 28.2546V34.0728H108.675V28.2546H109.38ZM110.792 28.2546H111.633L113.611 33.0841H113.679L115.656 28.2546H116.497V34.0728H115.838V29.6523H115.781L113.963 34.0728H113.327L111.508 29.6523H111.452V34.0728H110.792V28.2546ZM117.91 34.0728V28.2546H121.421V28.8796H118.614V30.8455H121.239V31.4705H118.614V33.4478H121.466V34.0728H117.91ZM124.623 28.8796V28.2546H128.986V28.8796H127.157V34.0728H126.452V28.8796H124.623ZM130.074 34.0728V28.2546H132.04C132.494 28.2546 132.867 28.3322 133.159 28.4875C133.451 28.6409 133.666 28.8521 133.807 29.121C133.947 29.39 134.017 29.6959 134.017 30.0387C134.017 30.3815 133.947 30.6854 133.807 30.9506C133.666 31.2157 133.452 31.4241 133.162 31.5756C132.872 31.7252 132.502 31.8 132.051 31.8H130.46V31.1637H132.028C132.339 31.1637 132.589 31.1182 132.778 31.0273C132.97 30.9364 133.108 30.8076 133.193 30.6409C133.28 30.4724 133.324 30.2716 133.324 30.0387C133.324 29.8057 133.28 29.6021 133.193 29.4279C133.106 29.2536 132.967 29.1192 132.775 29.0245C132.584 28.9279 132.331 28.8796 132.017 28.8796H130.778V34.0728H130.074ZM132.812 31.4591L134.244 34.0728H133.426L132.017 31.4591H132.812ZM135.43 34.0728H134.691L136.827 28.2546H137.555L139.691 34.0728H138.952L137.214 29.175H137.168L135.43 34.0728ZM135.702 31.8H138.68V32.425H135.702V31.8ZM145.006 30.0728H144.301C144.259 29.8701 144.186 29.6921 144.082 29.5387C143.98 29.3853 143.855 29.2565 143.707 29.1523C143.561 29.0462 143.399 28.9667 143.221 28.9137C143.043 28.8606 142.858 28.8341 142.665 28.8341C142.312 28.8341 141.993 28.9231 141.707 29.1012C141.423 29.2792 141.197 29.5415 141.028 29.8881C140.862 30.2347 140.778 30.6599 140.778 31.1637C140.778 31.6675 140.862 32.0926 141.028 32.4392C141.197 32.7858 141.423 33.0481 141.707 33.2262C141.993 33.4042 142.312 33.4932 142.665 33.4932C142.858 33.4932 143.043 33.4667 143.221 33.4137C143.399 33.3606 143.561 33.282 143.707 33.1779C143.855 33.0718 143.98 32.9421 144.082 32.7887C144.186 32.6334 144.259 32.4553 144.301 32.2546H145.006C144.952 32.5519 144.856 32.818 144.716 33.0529C144.576 33.2877 144.401 33.4875 144.193 33.6523C143.985 33.8152 143.751 33.9392 143.491 34.0245C143.234 34.1097 142.958 34.1523 142.665 34.1523C142.168 34.1523 141.727 34.0311 141.341 33.7887C140.954 33.5462 140.65 33.2015 140.429 32.7546C140.207 32.3076 140.096 31.7773 140.096 31.1637C140.096 30.55 140.207 30.0197 140.429 29.5728C140.65 29.1258 140.954 28.7811 141.341 28.5387C141.727 28.2962 142.168 28.175 142.665 28.175C142.958 28.175 143.234 28.2176 143.491 28.3029C143.751 28.3881 143.985 28.5131 144.193 28.6779C144.401 28.8407 144.576 29.0396 144.716 29.2745C144.856 29.5074 144.952 29.7735 145.006 30.0728ZM146.144 34.0728V28.2546H146.849V31.1409H146.917L149.53 28.2546H150.451L148.008 30.8796L150.451 34.0728H149.599L147.576 31.3682L146.849 32.1864V34.0728H146.144ZM152.067 28.2546V34.0728H151.363V28.2546H152.067ZM158.094 28.2546V34.0728H157.412L154.241 29.5046H154.184V34.0728H153.48V28.2546H154.162L157.344 32.8341H157.4V28.2546H158.094ZM163.481 30.0728C163.418 29.8815 163.336 29.7101 163.233 29.5585C163.133 29.4051 163.013 29.2745 162.873 29.1665C162.734 29.0585 162.577 28.9762 162.401 28.9193C162.225 28.8625 162.032 28.8341 161.822 28.8341C161.477 28.8341 161.163 28.9231 160.881 29.1012C160.599 29.2792 160.375 29.5415 160.208 29.8881C160.041 30.2347 159.958 30.6599 159.958 31.1637C159.958 31.6675 160.042 32.0926 160.211 32.4392C160.379 32.7858 160.608 33.0481 160.895 33.2262C161.183 33.4042 161.507 33.4932 161.867 33.4932C162.2 33.4932 162.494 33.4222 162.748 33.2801C163.003 33.1362 163.202 32.9335 163.344 32.6722C163.488 32.4089 163.56 32.0993 163.56 31.7432L163.776 31.7887H162.026V31.1637H164.242V31.7887C164.242 32.2678 164.14 32.6845 163.935 33.0387C163.733 33.3928 163.452 33.6675 163.094 33.8625C162.738 34.0557 162.329 34.1523 161.867 34.1523C161.352 34.1523 160.899 34.0311 160.509 33.7887C160.121 33.5462 159.818 33.2015 159.6 32.7546C159.384 32.3076 159.276 31.7773 159.276 31.1637C159.276 30.7034 159.338 30.2896 159.461 29.9222C159.586 29.5529 159.762 29.2385 159.989 28.979C160.216 28.7195 160.485 28.5207 160.796 28.3824C161.107 28.2442 161.448 28.175 161.822 28.175C162.128 28.175 162.414 28.2214 162.68 28.3142C162.947 28.4051 163.184 28.5349 163.393 28.7034C163.603 28.8701 163.778 29.0699 163.918 29.3029C164.058 29.5339 164.155 29.7906 164.208 30.0728H163.481Z" fill="#888888"/>
<path d="M45.6389 4.96436H5.30677C2.96205 4.96436 1.06128 7.18701 1.06128 9.9288V27.3044C1.06128 30.0461 2.96205 32.2688 5.30677 32.2688H45.6389C47.9837 32.2688 49.8844 30.0461 49.8844 27.3044V9.9288C49.8844 7.18701 47.9837 4.96436 45.6389 4.96436Z" fill="white"/>
<path d="M39.2708 0H5.30683C4.13447 0 3.18408 1.11133 3.18408 2.48222V7.44667C3.18408 8.81756 4.13447 9.92889 5.30683 9.92889H39.2708C40.4431 9.92889 41.3935 8.81756 41.3935 7.44667V2.48222C41.3935 1.11133 40.4431 0 39.2708 0Z" fill="white"/>
<path d="M12.7364 8.68774H6.36814C5.78196 8.68774 5.30676 9.24341 5.30676 9.92886V16.1344C5.30676 16.8199 5.78196 17.3755 6.36814 17.3755H12.7364C13.3226 17.3755 13.7977 16.8199 13.7977 16.1344V9.92886C13.7977 9.24341 13.3226 8.68774 12.7364 8.68774Z" fill="#1A1A1A"/>
<path d="M24.4115 8.68774H18.0433C17.4571 8.68774 16.9819 9.24341 16.9819 9.92886V16.1344C16.9819 16.8199 17.4571 17.3755 18.0433 17.3755H24.4115C24.9977 17.3755 25.4729 16.8199 25.4729 16.1344V9.92886C25.4729 9.24341 24.9977 8.68774 24.4115 8.68774Z" fill="#1A1A1A"/>
<path d="M36.0865 8.68774H29.7182C29.1321 8.68774 28.6569 9.24341 28.6569 9.92886V16.1344C28.6569 16.8199 29.1321 17.3755 29.7182 17.3755H36.0865C36.6727 17.3755 37.1478 16.8199 37.1478 16.1344V9.92886C37.1478 9.24341 36.6727 8.68774 36.0865 8.68774Z" fill="#1A1A1A"/>
<path d="M11.6749 37.2333C14.0197 37.2333 15.9204 35.0107 15.9204 32.2689C15.9204 29.5271 14.0197 27.3044 11.6749 27.3044C9.33021 27.3044 7.42944 29.5271 7.42944 32.2689C7.42944 35.0107 9.33021 37.2333 11.6749 37.2333Z" fill="#1A1A1A" stroke="white" stroke-width="1.5"/>
<path d="M39.2708 37.2333C41.6155 37.2333 43.5163 35.0107 43.5163 32.2689C43.5163 29.5271 41.6155 27.3044 39.2708 27.3044C36.926 27.3044 35.0253 29.5271 35.0253 32.2689C35.0253 35.0107 36.926 37.2333 39.2708 37.2333Z" fill="#1A1A1A" stroke="white" stroke-width="1.5"/>
<path d="M3.18408 39.7156C10.2599 36.406 17.3357 36.406 24.4115 39.7156C31.4874 43.0253 38.5632 42.1978 45.639 37.2334" stroke="#DC2626" stroke-width="2.5" stroke-linecap="round"/>
<path d="M45.639 33.51L52.0073 37.2333L45.639 40.9567V33.51Z" fill="#DC2626"/>
<path opacity="0.6" d="M3.18412 43.4389C4.94266 43.4389 6.36824 41.7719 6.36824 39.7155C6.36824 37.6592 4.94266 35.9922 3.18412 35.9922C1.42558 35.9922 0 37.6592 0 39.7155C0 41.7719 1.42558 43.4389 3.18412 43.4389Z" fill="#DC2626"/>
</svg>
