<svg width="63" height="35" viewBox="0 0 63 35" fill="none" xmlns="http://www.w3.org/2000/svg">
<path d="M57.6 0H4.8C2.14903 0 0 1.90386 0 4.25238V29.7667C0 32.1152 2.14903 34.0191 4.8 34.0191H57.6C60.251 34.0191 62.4 32.1152 62.4 29.7667V4.25238C62.4 1.90386 60.251 0 57.6 0Z" fill="white"/>
<path d="M55.2001 5.31567H7.20005C5.87457 5.31567 4.80005 6.2676 4.80005 7.44186V24.4514C4.80005 25.6257 5.87457 26.5776 7.20005 26.5776H55.2001C56.5255 26.5776 57.6001 25.6257 57.6001 24.4514V7.44186C57.6001 6.2676 56.5255 5.31567 55.2001 5.31567Z" fill="#222222"/>
<path opacity="0.85" d="M17.9999 8.50513H9.5999C8.93716 8.50513 8.3999 8.98109 8.3999 9.56822V14.8837C8.3999 15.4708 8.93716 15.9468 9.5999 15.9468H17.9999C18.6626 15.9468 19.1999 15.4708 19.1999 14.8837V9.56822C19.1999 8.98109 18.6626 8.50513 17.9999 8.50513Z" fill="#6ECFFF"/>
<path opacity="0.85" d="M32.4 8.50513H24C23.3373 8.50513 22.8 8.98109 22.8 9.56822V14.8837C22.8 15.4708 23.3373 15.9468 24 15.9468H32.4C33.0628 15.9468 33.6 15.4708 33.6 14.8837V9.56822C33.6 8.98109 33.0628 8.50513 32.4 8.50513Z" fill="#6ECFFF"/>
<path opacity="0.85" d="M46.8 8.50513H38.4C37.7372 8.50513 37.2 8.98109 37.2 9.56822V14.8837C37.2 15.4708 37.7372 15.9468 38.4 15.9468H46.8C47.4627 15.9468 48 15.4708 48 14.8837V9.56822C48 8.98109 47.4627 8.50513 46.8 8.50513Z" fill="#6ECFFF"/>
<path d="M56.4001 20.199H6.00005C5.33731 20.199 4.80005 20.6749 4.80005 21.2621V23.3883C4.80005 23.9754 5.33731 24.4514 6.00005 24.4514H56.4001C57.0628 24.4514 57.6001 23.9754 57.6001 23.3883V21.2621C57.6001 20.6749 57.0628 20.199 56.4001 20.199Z" fill="#333333"/>
<path d="M11.9999 30.8302C13.9881 30.8302 15.5999 29.4023 15.5999 27.6409C15.5999 25.8796 13.9881 24.4517 11.9999 24.4517C10.0117 24.4517 8.3999 25.8796 8.3999 27.6409C8.3999 29.4023 10.0117 30.8302 11.9999 30.8302Z" fill="#555555" stroke="#888888" stroke-width="0.5"/>
<path d="M50.4 30.8302C52.3883 30.8302 54 29.4023 54 27.6409C54 25.8796 52.3883 24.4517 50.4 24.4517C48.4118 24.4517 46.8 25.8796 46.8 27.6409C46.8 29.4023 48.4118 30.8302 50.4 30.8302Z" fill="#555555" stroke="#888888" stroke-width="0.5"/>
<path d="M6.0001 12.7573H4.8001C4.13736 12.7573 3.6001 13.2333 3.6001 13.8204V17.0097C3.6001 17.5968 4.13736 18.0728 4.8001 18.0728H6.0001C6.66284 18.0728 7.2001 17.5968 7.2001 17.0097V13.8204C7.2001 13.2333 6.66284 12.7573 6.0001 12.7573Z" fill="#E53935"/>
<path d="M57.6 12.7573H56.4C55.7372 12.7573 55.2 13.2333 55.2 13.8204V17.0097C55.2 17.5968 55.7372 18.0728 56.4 18.0728H57.6C58.2627 18.0728 58.8 17.5968 58.8 17.0097V13.8204C58.8 13.2333 58.2627 12.7573 57.6 12.7573Z" fill="#E53935"/>
</svg>
